<svg xmlns="http://www.w3.org/2000/svg" version="1.1" xmlns:xlink="http://www.w3.org/1999/xlink" xmlns:svgjs="http://svgjs.dev/svgjs" width="1500" height="1505" viewBox="0 0 1500 1505"><g transform="matrix(1,0,0,1,0,-2.677888295662683)"><svg viewBox="0 0 280 281" data-background-color="#ffffff" preserveAspectRatio="xMidYMid meet" height="1505" width="1500" xmlns="http://www.w3.org/2000/svg" xmlns:xlink="http://www.w3.org/1999/xlink"><g id="tight-bounds" transform="matrix(1,0,0,1,0,0.500008896291547)"><svg viewBox="0 0 280 280" height="280" width="280"><g><svg viewBox="0 0 280 280" height="280" width="280"><g><svg viewBox="0 0 280 280" height="280" width="280"><g id="textblocktransform"><svg viewBox="0 0 280 280" height="280" width="280" id="textblock"><g><svg viewBox="0 0 280 280" height="280" width="280"><g transform="matrix(1,0,0,1,57.50420886156945,57.50420886156945)"><svg viewBox="0 0 164.9915822768611 164.9915822768611" height="164.9915822768611" width="164.9915822768611"><g id="icon-0"><circle r="82" cx="82.49579113843055" cy="82.49579113843055" fill="#8789fe" data-fill-palette-color="accent"></circle><svg version="1.1" xmlns="http://www.w3.org/2000/svg" xmlns:xlink="http://www.w3.org/1999/xlink" x="24.74873734152917" y="24.748737341529164" viewBox="11.855144043705314 19.526 76.29135083038855 60.949" enable-background="new 0 0 100 100" xml:space="preserve" height="115.49410759380275" width="115.49410759380275" class="icon-jxe-0" data-fill-palette-color="quaternary" id="jxe-0"><path d="M88.141 67.592L87.51 53.891C87.41 51.733 85.975 50.041 84.24 50.041 84.031 50.041 83.847 50.028 83.696 50.01V45.476C83.696 45.282 83.676 45.095 83.649 44.909 85.24 44.118 86.414 42.449 86.414 40.862 86.414 38.909 84.658 37.32 82.5 37.32H79.24C78.838 37.32 78.453 37.384 78.089 37.498L76.229 26.878A4.2 4.2 0 0 0 75.612 25.324 4 4 0 0 0 75.726 24.396V23.439A3.917 3.917 0 0 0 71.813 19.526H28.188A3.917 3.917 0 0 0 24.275 23.439V24.396C24.275 24.716 24.316 25.026 24.389 25.324 24.087 25.794 23.87 26.318 23.771 26.878L21.911 37.498A3.8 3.8 0 0 0 20.761 37.32H17.5C15.342 37.32 13.587 38.909 13.587 40.862 13.587 42.448 14.761 44.117 16.351 44.909A4 4 0 0 0 16.305 45.476V50.01A5 5 0 0 1 15.762 50.041C14.027 50.041 12.591 51.733 12.491 53.891L11.861 67.592C11.803 68.863 12.178 70.019 12.89 70.764 13.381 71.28 14.015 71.563 14.674 71.563H16.956V76.562A3.917 3.917 0 0 0 20.869 80.475H24.782A3.917 3.917 0 0 0 28.695 76.562V71.563H71.304V76.562A3.917 3.917 0 0 0 75.216 80.475H79.13A3.917 3.917 0 0 0 83.042 76.562V71.563H85.325C85.985 71.563 86.618 71.28 87.109 70.764 87.823 70.019 88.197 68.862 88.141 67.592M26.087 76.562C26.087 77.282 25.502 77.867 24.783 77.867H20.87A1.306 1.306 0 0 1 19.566 76.562V71.563H26.087zM24.766 60.123C22.014 60.123 19.783 58.047 19.783 55.486S22.014 50.851 24.766 50.851 29.749 52.926 29.749 55.486C29.749 58.047 27.518 60.123 24.766 60.123M63.207 59.892H37.29A0.652 0.652 0 1 1 37.29 58.589H63.207A0.651 0.651 0 1 1 63.207 59.892M63.207 56.561H37.29A0.653 0.653 0 0 1 37.29 55.257H63.207A0.652 0.652 0 0 1 63.207 56.561M63.207 53.229H37.29A0.652 0.652 0 0 1 37.29 51.925H63.207A0.653 0.653 0 0 1 63.207 53.229M68.178 43.072C66.951 43.072 65.533 42.919 64.649 42.69L52.852 39.646A10.7 10.7 0 0 0 50.87 39.363V37.867C51.548 37.668 53.218 35.45 52.664 34.895 52.109 34.341 50.896 35.19 50 35.87 49.076 35.163 47.96 34.273 47.337 34.896S48.46 37.671 49.13 37.868V39.364C48.393 39.407 47.708 39.503 47.148 39.647L35.352 42.69C34.467 42.919 33.048 43.072 31.822 43.072 31.402 43.072 31.015 43.053 30.704 43.019L23.746 42.24C23.746 42.177 23.751 42.111 23.763 42.043L26.341 27.327C26.48 26.533 27.309 25.837 28.115 25.837H71.884C72.69 25.837 73.519 26.533 73.657 27.327L76.235 42.043C76.247 42.11 76.252 42.176 76.253 42.24L69.294 43.019C68.984 43.054 68.598 43.072 68.178 43.072M70.251 55.486C70.251 52.926 72.482 50.851 75.234 50.851S80.216 52.926 80.216 55.486C80.216 58.047 77.986 60.123 75.234 60.123S70.251 58.047 70.251 55.486M80.435 76.562C80.435 77.282 79.85 77.867 79.131 77.867H75.217A1.306 1.306 0 0 1 73.913 76.562V71.563H80.434V76.562z" fill="#ffffff" data-fill-palette-color="quaternary"></path></svg></g></svg></g><g id="text-0"><path d="M30.274 106.178l-0.566 0.837c-0.186 0.301-0.407 0.626-0.666 0.975-0.252 0.351-0.396 0.58-0.431 0.689v0l-0.064 0.192c-0.128 0.385-0.008 0.752 0.36 1.102v0c0.015 0.019 0.021 0.032 0.019 0.039v0l-0.16 0.48c-0.021 0.064-0.059 0.091-0.112 0.081v0l-5.284-0.197c-0.244-0.017-0.301-0.218-0.173-0.602v0c0.049-0.147 0.112-0.24 0.188-0.279 0.075-0.032 0.129-0.057 0.164-0.074 0.026-0.013 0.119-0.035 0.278-0.067v0c2.246-0.848 3.829-2.657 4.75-5.427v0c0.483-1.455 0.5-2.791 0.05-4.008-0.443-1.215-1.409-2.07-2.896-2.564v0c-1-0.332-1.803-0.421-2.41-0.266-0.6 0.157-1.059 0.296-1.377 0.418v0c-0.677 0.259-1.756 1.054-3.237 2.384-1.477 1.339-2.757 2.397-3.842 3.176v0c-2.745 1.985-5.111 2.648-7.098 1.987-1.994-0.662-3.325-1.798-3.993-3.408-0.677-1.606-0.674-3.434 0.007-5.485v0c0.383-1.154 1.099-2.269 2.147-3.345v0c0.497-0.511 0.841-0.892 1.03-1.141 0.19-0.25 0.197-0.465 0.022-0.644-0.175-0.179-0.26-0.278-0.254-0.298v0c0.113-0.511 0.272-0.732 0.477-0.664v0l5.391 1.257c0.096 0.032 0.061 0.298-0.105 0.798v0c-0.023 0.071-0.141 0.103-0.352 0.096v0c-1.22-0.035-2.402 0.448-3.546 1.449-1.148 0.992-1.928 2.107-2.339 3.345v0c-0.875 2.635-0.226 4.313 1.947 5.034v0c1.577 0.524 3.621-0.381 6.134-2.713v0l2.692-2.544c1.688-1.546 3.269-2.502 4.742-2.867 1.478-0.356 2.912-0.303 4.303 0.159v0l0.164 0.055c1.782 0.891 2.947 1.637 3.495 2.239v0c0.898 1.003 1.488 2.195 1.769 3.577 0.281 1.382 0.176 2.813-0.316 4.294v0c-0.302 0.803-0.605 1.447-0.908 1.93z" fill="#8789fe" data-fill-palette-color="primary"></path><path d="M22.86 87.366v0l-0.26-0.159c-0.03-0.016-0.144-0.533-0.342-1.552-0.201-1.013-0.333-1.868-0.395-2.563v0l0.39-0.745c0.091-0.028 0.265 0.025 0.523 0.159v0l9.298 4.872c0.64 0.335 1.315 0.43 2.025 0.284v0c1.393-0.3 2.478-1.192 3.255-2.676v0c0.53-1.011 0.792-2.327 0.787-3.946v0l0.002-0.857-9.396-4.924c-0.742-0.389-1.339-0.385-1.791 0.012v0c-0.123 0.103-0.23 0.184-0.322 0.243-0.095 0.05-0.232 0.027-0.411-0.067-0.185-0.097-0.244-0.212-0.175-0.343v0l1.792-3.42c0.031-0.06 1.695 0.774 4.992 2.502v0l5.964 3.137c0.568 0.298 1.095 0.356 1.578 0.175v0c0.116-0.046 0.224-0.157 0.324-0.334 0.109-0.179 0.202-0.283 0.278-0.312 0.073-0.038 0.206-0.007 0.397 0.094 0.189 0.091 0.285 0.169 0.29 0.232v0l-0.004 3.784c0.008 0.058-0.046 0.197-0.162 0.418-0.116 0.221-0.206 0.342-0.27 0.362-0.064 0.02-0.212-0.031-0.446-0.153v0l-1.319-0.691c-0.006 0.012 0.008 0.123 0.044 0.331v0c0.251 2.549 0.039 4.466-0.636 5.753v0c-0.451 0.862-1.127 1.613-2.028 2.255-0.895 0.645-1.868 1.054-2.919 1.227-1.046 0.176-1.976 0.052-2.789-0.375v0l-6.103-3.198c-0.425-0.223-0.772-0.302-1.043-0.237-0.276 0.061-0.467 0.186-0.573 0.374-0.103 0.197-0.189 0.309-0.256 0.335v0c-0.104 0.052-0.203 0.054-0.299 0.003z" fill="#8789fe" data-fill-palette-color="primary"></path><path d="M34.395 66.94v0l-0.238-0.189c-0.049-0.036-0.069-0.093-0.062-0.172 0.009-0.069 0.012-0.113 0.01-0.132v0l-0.002-3.846c0.001-0.058 0.064-0.171 0.189-0.34 0.125-0.168 0.233-0.269 0.324-0.302 0.092-0.033 0.238 0.025 0.439 0.174v0l2.37 1.755c-0.052-0.123-0.098-0.27-0.139-0.443v0c-0.335-1.273-0.465-2.437-0.39-3.492 0.084-1.056 0.466-2.042 1.145-2.959v0c0.217-0.293 0.376-0.428 0.476-0.404v0c0.536 0.162 1.029 0.329 1.48 0.503v0l1.957 0.781c0.118 0.045 0.161 0.191 0.13 0.437-0.027 0.241-0.08 0.403-0.159 0.487-0.079 0.084-0.238 0.118-0.478 0.1v0l-0.361-0.04c-0.826 0.162-1.436 0.605-1.83 1.33-0.389 0.729-0.607 1.53-0.656 2.402-0.043 0.876 0.06 1.616 0.31 2.221v0c0.008 0.023 0.025 0.069 0.049 0.137 0.03 0.073 0.053 0.115 0.07 0.128v0l6.335 4.691c0.049 0.036 0.147 0.113 0.295 0.231 0.148 0.118 0.244 0.193 0.287 0.225v0c0.637 0.354 1.142 0.421 1.515 0.202 0.382-0.221 0.627-0.296 0.735-0.225v0c0.255 0.189 0.339 0.343 0.25 0.462v0l-3.027 4.088c-0.088 0.119-0.217 0.117-0.385-0.008-0.163-0.121-0.241-0.237-0.233-0.349 0.009-0.103 0.036-0.23 0.08-0.382 0.036-0.15 0.045-0.282 0.028-0.395v0c-0.035-0.236-0.112-0.461-0.231-0.675-0.123-0.209-0.311-0.403-0.565-0.583-0.254-0.179-0.4-0.283-0.437-0.311v0l-7.305-5.409c-0.308-0.22-0.576-0.3-0.804-0.242-0.229 0.049-0.412 0.153-0.547 0.313-0.131 0.155-0.234 0.247-0.306 0.278v0c-0.125 0.033-0.232 0.018-0.319-0.047z" fill="#8789fe" data-fill-palette-color="primary"></path><path d="M53.441 57.805v0c-0.151 0.316 0.07 0.42 0.661 0.311 0.601-0.109 1.363-0.462 2.286-1.06 0.928-0.603 1.698-1.133 2.311-1.591 0.623-0.458 1.315-0.894 2.077-1.31 0.757-0.42 1.455-0.738 2.093-0.952 0.639-0.214 1.29-0.269 1.955-0.163 0.665 0.115 1.257 0.429 1.776 0.942 0.524 0.517 0.881 1.103 1.071 1.755v0c0.644 2.184-0.509 4.77-3.461 7.76v0c-1.353 1.37-2.89 2.273-4.611 2.709-1.722 0.446-3.302 0.191-4.741-0.765v0l-0.152-0.149c-0.062-0.062-0.113-0.107-0.151-0.135v0l0.276-3.9c0.062-0.062 0.198-0.094 0.408-0.096 0.215-0.006 0.356 0.024 0.423 0.091 0.062 0.062 0.092 0.224 0.089 0.487 0.006 0.263 0.303 0.684 0.89 1.262 0.586 0.579 1.36 0.858 2.319 0.838 0.96-0.02 1.861-0.279 2.704-0.777v0c1.688-1.219 2.84-2.54 3.457-3.962v0c0.212-0.493 0.292-0.993 0.241-1.499-0.061-0.506-0.252-0.918-0.574-1.236-0.322-0.318-0.745-0.413-1.27-0.286v0c-0.72 0.172-2.174 0.952-4.363 2.342-2.193 1.385-3.909 2.339-5.148 2.863v0c-0.267 0.107-0.422 0.139-0.465 0.096-0.043-0.043-0.182-0.422-0.415-1.137-0.224-0.715-0.418-1.457-0.581-2.224v0c-0.964 0.159-1.92 0.103-2.867-0.168-0.952-0.276-1.779-0.76-2.481-1.453v0c-1.37-1.353-2.063-2.886-2.078-4.601-0.016-1.705 0.61-3.199 1.877-4.483 1.267-1.283 2.715-1.942 4.344-1.977v0l0.035-0.064c-0.35-0.963-0.535-1.473-0.554-1.53-0.019-0.057-0.013-0.103 0.021-0.136v0l2.014-2.041c0.057-0.058 0.176-0.058 0.359-0.002 0.172 0.056 0.254 0.118 0.244 0.185v0c-0.099 0.273-0.223 0.601-0.373 0.984v0c-0.31 0.785-0.28 1.731 0.09 2.836v0c1.072 0.318 2 0.864 2.783 1.638v0c1.288 1.272 1.931 2.775 1.927 4.509-0.003 1.724-0.665 3.255-1.984 4.591v0c-0.674 0.683-1.495 1.182-2.462 1.498zM47.835 49.451v0c-1.542 1.562-1.463 3.183 0.238 4.863v0c0.995 0.982 2.197 1.433 3.606 1.353 1.404-0.085 2.542-0.57 3.415-1.455 0.873-0.884 1.296-1.702 1.267-2.451-0.029-0.75-0.504-1.58-1.427-2.491-0.918-0.906-2.077-1.362-3.477-1.368-1.395-0.001-2.602 0.516-3.622 1.549z" fill="#8789fe" data-fill-palette-color="primary"></path><path d="M59.376 39.842v0l-0.164-0.257c-0.02-0.027 0.105-0.542 0.375-1.545 0.264-0.998 0.522-1.824 0.772-2.476v0l0.678-0.498c0.094 0.015 0.228 0.139 0.399 0.373v0l6.211 8.463c0.428 0.583 0.992 0.964 1.694 1.145v0c1.383 0.343 2.749 0.019 4.1-0.973v0c0.92-0.675 1.734-1.742 2.441-3.199v0l0.379-0.768-6.276-8.553c-0.496-0.675-1.033-0.934-1.614-0.777v0c-0.156 0.039-0.288 0.065-0.396 0.077-0.107 0.003-0.22-0.077-0.34-0.24-0.124-0.169-0.126-0.297-0.006-0.385v0l3.113-2.284c0.054-0.04 1.183 1.44 3.384 4.441v0l3.979 5.438c0.38 0.517 0.827 0.801 1.341 0.851v0c0.124 0.009 0.27-0.043 0.437-0.157 0.177-0.113 0.306-0.166 0.387-0.159 0.082-0.002 0.188 0.084 0.315 0.259 0.129 0.165 0.182 0.277 0.159 0.336v0l-1.667 3.398c-0.018 0.055-0.128 0.157-0.33 0.304-0.202 0.148-0.335 0.217-0.401 0.207-0.066-0.01-0.177-0.121-0.333-0.334v0l-0.881-1.201c-0.011 0.008-0.046 0.114-0.107 0.317v0c-0.895 2.4-1.928 4.029-3.099 4.889v0c-0.784 0.575-1.722 0.953-2.812 1.133-1.087 0.186-2.141 0.126-3.162-0.18-1.017-0.301-1.797-0.822-2.341-1.563v0l-4.076-5.555c-0.284-0.387-0.561-0.61-0.832-0.671-0.275-0.066-0.502-0.038-0.68 0.084-0.18 0.132-0.305 0.195-0.377 0.188v0c-0.116 0.001-0.206-0.041-0.27-0.128z" fill="#8789fe" data-fill-palette-color="primary"></path><path d="M77.829 20.292v0c-0.075-0.212 0.054-0.408 0.387-0.587 0.339-0.182 0.562-0.174 0.667 0.022v0l1.444 2.698 2.68-1.435c0.518-0.277 0.812-0.351 0.882-0.219v0l0.713 1.331c0.073 0.137-0.149 0.344-0.667 0.621v0l-2.68 1.435 5.031 9.397c0.644 1.203 1.359 1.686 2.144 1.45v0c0.597-0.174 1.042-0.673 1.336-1.497v0c0.117-0.339 0.257-0.479 0.419-0.42 0.156 0.062 0.268 0.113 0.335 0.154 0.074 0.037 0.125 0.083 0.154 0.137 0.032 0.06 0.056 0.104 0.072 0.134v0c0.037 0.041 0.03 0.156-0.023 0.345v0l-0.178 0.44c-0.56 1.472-1.36 2.433-2.399 2.882-1.036 0.455-2.047 0.249-3.032-0.618v0c-0.533-0.466-1.024-1.118-1.473-1.958v0l-4.878-9.112-0.697 0.373c-0.518 0.277-0.814 0.348-0.887 0.211v0l-0.713-1.331c-0.07-0.131 0.106-0.31 0.529-0.536v0c0.75-0.402 1.149-0.952 1.196-1.652 0.047-0.699-0.074-1.455-0.362-2.265z" fill="#8789fe" data-fill-palette-color="primary"></path><path d="M102.285 27.82v0c0 0 1.568-9.107 4.706-27.32v0c0.019-0.144 0.274-0.279 0.765-0.404 0.484-0.123 0.776-0.128 0.874-0.014v0l17.544 21.649c0.689 0.898 1.268 1.392 1.737 1.481v0c0.162 0.035 0.27 0.158 0.324 0.367 0.053 0.209 0.008 0.333-0.136 0.369v0l-6.019 1.535c-0.144 0.037-0.241-0.043-0.291-0.24-0.048-0.19-0.055-0.31-0.019-0.361 0.042-0.053 0.101-0.109 0.176-0.17 0.082-0.063 0.144-0.131 0.188-0.205v0c0.312-0.526 0.422-0.969 0.331-1.329-0.092-0.36-0.207-0.648-0.346-0.863v0l-3.869-5.089-11.999 3.058-0.912 6.308c-0.018 0.256-0.013 0.442 0.018 0.56v0l0.047 0.187c0.003 0.013 0.007 0.026 0.01 0.039v0c0.115 0.452 0.439 0.833 0.971 1.143v0c0.051 0.036 0.157 0.068 0.318 0.097 0.169 0.034 0.28 0.155 0.333 0.365 0.053 0.209 0.005 0.333-0.145 0.372v0l-5.244 1.336c-0.144 0.037-0.241-0.043-0.291-0.239-0.048-0.19-0.051-0.311-0.009-0.364 0.042-0.053 0.1-0.113 0.174-0.18v0c0.327-0.251 0.581-0.946 0.764-2.088zM108.772 5.682l-2.018 11.651c-0.011 0.038-0.004 0.081 0.023 0.13 0.018 0.044 0.044 0.062 0.076 0.054v0l9.504-2.423c0.033-0.008 0.05-0.037 0.052-0.086 0-0.056-0.018-0.097-0.052-0.123v0l-7.467-9.233z" fill="#8789fe" data-fill-palette-color="primary"></path><path d="M130 10.318v0l0.005-0.305c-0.002-0.034 0.387-0.394 1.164-1.081 0.771-0.687 1.441-1.234 2.01-1.641v0l0.84-0.041c0.071 0.064 0.113 0.241 0.127 0.532v0l0.513 10.484c0.035 0.722 0.296 1.352 0.782 1.89v0c0.964 1.048 2.283 1.532 3.957 1.45v0c1.14-0.056 2.407-0.496 3.8-1.322v0l0.74-0.432-0.518-10.596c-0.041-0.837-0.347-1.349-0.917-1.538v0c-0.151-0.053-0.276-0.105-0.373-0.154-0.091-0.056-0.141-0.186-0.151-0.389-0.01-0.209 0.059-0.317 0.207-0.324v0l3.856-0.189c0.067-0.003 0.192 1.854 0.374 5.572v0l0.319 6.73c0.031 0.641 0.248 1.124 0.649 1.45v0c0.098 0.076 0.249 0.113 0.452 0.109 0.21 0.003 0.346 0.03 0.41 0.082 0.07 0.044 0.11 0.174 0.12 0.39 0.017 0.209-0.001 0.331-0.053 0.367v0l-3.264 1.915c-0.046 0.036-0.193 0.06-0.443 0.072-0.25 0.012-0.399-0.004-0.449-0.049-0.05-0.045-0.081-0.199-0.093-0.462v0l-0.073-1.487c-0.013 0.001-0.101 0.069-0.264 0.205v0c-2.07 1.508-3.831 2.297-5.281 2.369v0c-0.972 0.048-1.962-0.154-2.972-0.606-1.009-0.444-1.855-1.076-2.537-1.895-0.682-0.812-1.046-1.677-1.091-2.594v0l-0.336-6.882c-0.023-0.479-0.131-0.819-0.324-1.019-0.193-0.207-0.397-0.309-0.613-0.305-0.223 0.011-0.362-0.006-0.419-0.05v0c-0.098-0.063-0.149-0.148-0.154-0.256z" fill="#8789fe" data-fill-palette-color="primary"></path><path d="M156.176 4.188v0c0.054-0.219 0.27-0.311 0.647-0.275 0.383 0.036 0.565 0.164 0.544 0.386v0l-0.284 3.047 3.027 0.282c0.585 0.054 0.871 0.156 0.857 0.303v0l-0.14 1.504c-0.014 0.155-0.314 0.205-0.899 0.15v0l-3.027-0.282-0.988 10.614c-0.126 1.359 0.203 2.156 0.989 2.392v0c0.593 0.184 1.24 0.014 1.94-0.512v0c0.285-0.218 0.478-0.257 0.581-0.119 0.096 0.138 0.161 0.242 0.195 0.314 0.041 0.072 0.058 0.138 0.053 0.198-0.006 0.067-0.011 0.118-0.014 0.151v0c0.008 0.055-0.061 0.147-0.209 0.276v0l-0.392 0.269c-1.28 0.919-2.477 1.279-3.591 1.08-1.115-0.192-1.844-0.921-2.187-2.188v0c-0.188-0.682-0.237-1.498-0.149-2.446v0l0.957-10.291-0.787-0.073c-0.585-0.054-0.871-0.159-0.856-0.314v0l0.14-1.503c0.014-0.148 0.259-0.2 0.737-0.155v0c0.847 0.079 1.484-0.16 1.909-0.718 0.425-0.557 0.741-1.254 0.947-2.09z" fill="#8789fe" data-fill-palette-color="primary"></path><path d="M169.321 12.03c-0.827 0.303-1.497 0.789-2.01 1.458-0.513 0.669-0.894 1.575-1.144 2.716-0.25 1.142-0.183 2.353 0.201 3.633 0.385 1.274 1.056 2.364 2.012 3.272 0.956 0.908 1.979 1.481 3.067 1.719 1.095 0.24 2.04 0.19 2.833-0.148 0.795-0.345 1.459-0.87 1.994-1.576 0.533-0.699 0.903-1.521 1.11-2.464v0c0.433-1.98 0.178-3.816-0.765-5.51-0.95-1.695-2.484-2.774-4.603-3.237v0c-0.97-0.212-1.869-0.167-2.695 0.137zM164.762 22.908c-0.583-0.874-0.992-1.866-1.226-2.975-0.234-1.109-0.201-2.35 0.099-3.723 0.302-1.379 0.947-2.638 1.936-3.777 0.991-1.145 2.225-1.937 3.704-2.374 1.479-0.437 2.927-0.5 4.346-0.19v0c2.6 0.569 4.488 1.833 5.663 3.791 1.174 1.965 1.51 4.113 1.007 6.444-0.502 2.324-1.739 4.107-3.711 5.349-1.973 1.242-4.193 1.593-6.662 1.052v0c-1.056-0.231-2.032-0.669-2.927-1.315-0.897-0.639-1.64-1.4-2.229-2.282z" fill="#8789fe" data-fill-palette-color="primary"></path><path d="M195.957 35.357l-0.747-0.681c-0.272-0.227-0.561-0.493-0.869-0.798-0.311-0.299-0.518-0.475-0.621-0.526v0l-0.181-0.091c-0.362-0.182-0.743-0.115-1.142 0.199v0c-0.021 0.012-0.035 0.017-0.041 0.013v0l-0.453-0.227c-0.06-0.03-0.082-0.071-0.063-0.122v0l0.951-5.201c0.052-0.239 0.259-0.267 0.621-0.086v0c0.139 0.07 0.222 0.145 0.249 0.227 0.021 0.079 0.038 0.136 0.05 0.172 0.009 0.027 0.018 0.122 0.027 0.286v0c0.518 2.345 2.081 4.171 4.69 5.477v0c1.371 0.687 2.691 0.895 3.96 0.624 1.266-0.265 2.25-1.098 2.952-2.499v0c0.472-0.942 0.675-1.724 0.609-2.347-0.069-0.616-0.141-1.091-0.217-1.423v0c-0.16-0.707-0.792-1.889-1.896-3.545-1.113-1.653-1.978-3.072-2.593-4.257v0c-1.572-3.001-1.888-5.438-0.95-7.31 0.941-1.878 2.256-3.033 3.945-3.463 1.686-0.44 3.495-0.175 5.428 0.793v0c1.087 0.545 2.088 1.412 3.002 2.603v0c0.435 0.565 0.762 0.96 0.983 1.183 0.22 0.224 0.432 0.262 0.634 0.114 0.203-0.148 0.313-0.217 0.331-0.208v0c0.489 0.185 0.685 0.374 0.589 0.567v0l-2.016 5.155c-0.045 0.091-0.304 0.018-0.775-0.218v0c-0.066-0.033-0.081-0.154-0.045-0.363v0c0.209-1.202-0.099-2.441-0.926-3.716-0.818-1.278-1.809-2.21-2.975-2.794v0c-2.482-1.244-4.236-0.842-5.262 1.206v0c-0.744 1.486-0.142 3.639 1.807 6.459v0l2.132 3.028c1.288 1.892 2.008 3.593 2.158 5.104 0.141 1.514-0.117 2.926-0.774 4.237v0l-0.077 0.154c-1.137 1.636-2.043 2.682-2.717 3.138v0c-1.121 0.745-2.386 1.158-3.794 1.238-1.408 0.08-2.809-0.229-4.204-0.927v0c-0.752-0.414-1.345-0.806-1.78-1.175z" fill="#8789fe" data-fill-palette-color="primary"></path><path d="M215.637 30.711v0l0.194-0.234c0.02-0.027 0.548-0.066 1.585-0.117 1.031-0.054 1.896-0.063 2.594-0.025v0l0.681 0.493c0.015 0.094-0.062 0.259-0.232 0.495v0l-6.152 8.506c-0.424 0.586-0.614 1.24-0.57 1.963v0c0.098 1.421 0.825 2.623 2.183 3.605v0c0.925 0.669 2.189 1.117 3.793 1.342v0l0.847 0.126 6.217-8.597c0.491-0.679 0.573-1.27 0.245-1.773v0c-0.085-0.136-0.15-0.254-0.194-0.354-0.036-0.101 0.006-0.233 0.124-0.397 0.123-0.17 0.244-0.211 0.365-0.124v0l3.128 2.263c0.055 0.04-1.008 1.567-3.19 4.583v0l-3.957 5.454c-0.376 0.52-0.509 1.032-0.398 1.537v0c0.029 0.121 0.124 0.244 0.284 0.368 0.162 0.134 0.251 0.24 0.269 0.319 0.027 0.078-0.023 0.204-0.15 0.38-0.117 0.174-0.208 0.258-0.271 0.254v0l-3.745-0.545c-0.058 0-0.188-0.074-0.391-0.22-0.203-0.146-0.309-0.253-0.32-0.319-0.011-0.066 0.061-0.206 0.216-0.419v0l0.873-1.207c-0.011-0.008-0.122-0.009-0.335-0.005v0c-2.558-0.116-4.426-0.6-5.602-1.451v0c-0.788-0.57-1.435-1.347-1.942-2.329-0.51-0.978-0.776-1.999-0.797-3.065-0.025-1.06 0.231-1.963 0.77-2.707v0l4.038-5.583c0.281-0.389 0.409-0.721 0.384-0.998-0.021-0.282-0.117-0.489-0.289-0.621-0.181-0.131-0.279-0.231-0.295-0.301v0c-0.037-0.11-0.024-0.209 0.039-0.297z" fill="#8789fe" data-fill-palette-color="primary"></path><path d="M234.344 45.247v0l0.233-0.196c0.044-0.042 0.101-0.055 0.173-0.04 0.071 0.025 0.114 0.036 0.128 0.031v0l3.8 0.647c0.052 0.006 0.151 0.084 0.296 0.236 0.14 0.146 0.222 0.269 0.244 0.37 0.022 0.101-0.057 0.238-0.237 0.411v0l-1.016 0.976c0.388-0.045 0.978 0.048 1.772 0.278v0c1.535 0.426 2.712 1.066 3.531 1.918v0c1.658 1.724 2.433 3.724 2.327 6-0.107 2.286-1.022 4.258-2.745 5.916-1.719 1.653-3.741 2.45-6.066 2.39-2.325-0.06-4.371-1.007-6.136-2.843v0c-1.189-1.237-1.912-2.748-2.169-4.535v0l-3.864 3.715c-0.039 0.037-0.129 0.119-0.27 0.246-0.141 0.126-0.224 0.211-0.248 0.253v0c-0.479 0.574-0.639 1.065-0.48 1.474 0.164 0.405 0.2 0.651 0.107 0.74v0c-0.229 0.22-0.395 0.277-0.498 0.17v0l-3.526-3.666c-0.103-0.107-0.081-0.231 0.065-0.372 0.151-0.145 0.279-0.202 0.383-0.171 0.105 0.021 0.228 0.067 0.37 0.136 0.147 0.065 0.278 0.099 0.392 0.101v0c0.501 0.015 0.908-0.133 1.22-0.442 0.317-0.314 0.49-0.485 0.519-0.513v0l11.67-11.224c0.263-0.272 0.388-0.523 0.373-0.753-0.01-0.234-0.082-0.432-0.218-0.592-0.131-0.155-0.205-0.272-0.222-0.348v0c-0.017-0.134 0.014-0.239 0.092-0.313zM242.571 55.905c0.098-0.853-0.017-1.718-0.344-2.593-0.332-0.881-0.914-1.754-1.748-2.621-0.838-0.872-2.236-1.336-4.193-1.393v0l-4.893 4.705c-0.359 1.245-0.393 2.496-0.102 3.754 0.296 1.253 0.823 2.273 1.581 3.062 0.763 0.794 1.568 1.27 2.416 1.43 0.857 0.16 1.704 0.095 2.54-0.194 0.832-0.285 1.599-0.764 2.3-1.439 0.696-0.67 1.255-1.409 1.677-2.217 0.417-0.814 0.672-1.645 0.766-2.494z" fill="#8789fe" data-fill-palette-color="primary"></path><path d="M249.501 61.99v0l0.263-0.154c0.05-0.034 0.109-0.037 0.177-0.01 0.066 0.037 0.106 0.054 0.121 0.053v0l3.636 1.281c0.051 0.015 0.135 0.109 0.252 0.282 0.114 0.168 0.173 0.303 0.177 0.406 0.005 0.103-0.097 0.225-0.303 0.365v0l-1.166 0.79c0.39 0.021 0.956 0.213 1.699 0.575v0c1.44 0.68 2.492 1.51 3.156 2.488v0c1.342 1.979 1.767 4.082 1.276 6.308-0.492 2.235-1.728 4.024-3.707 5.365-1.974 1.338-4.102 1.781-6.383 1.328-2.282-0.453-4.137-1.733-5.566-3.841v0c-0.963-1.42-1.419-3.033-1.37-4.837v0l-4.437 3.007c-0.045 0.03-0.147 0.096-0.307 0.197-0.16 0.101-0.256 0.17-0.288 0.207v0c-0.57 0.484-0.811 0.941-0.723 1.372 0.093 0.426 0.087 0.676-0.02 0.747v0c-0.263 0.178-0.436 0.206-0.519 0.083v0l-2.854-4.21c-0.083-0.123-0.041-0.241 0.127-0.355 0.173-0.117 0.309-0.152 0.406-0.105 0.1 0.039 0.213 0.104 0.342 0.197 0.134 0.089 0.257 0.144 0.369 0.166v0c0.492 0.099 0.917 0.023 1.277-0.229 0.365-0.256 0.565-0.395 0.598-0.418v0l13.403-9.085c0.306-0.223 0.471-0.45 0.495-0.679 0.03-0.233-0.008-0.439-0.114-0.62-0.103-0.175-0.156-0.302-0.161-0.381v0c0.006-0.135 0.054-0.233 0.144-0.293zM255.804 73.888c0.241-0.824 0.275-1.696 0.101-2.614-0.178-0.924-0.604-1.884-1.279-2.88-0.678-1.001-1.978-1.695-3.897-2.083v0l-5.619 3.809c-0.564 1.166-0.81 2.393-0.736 3.682 0.079 1.285 0.426 2.38 1.04 3.286 0.618 0.911 1.331 1.518 2.138 1.818 0.817 0.303 1.663 0.382 2.537 0.239 0.868-0.14 1.705-0.482 2.51-1.028 0.8-0.542 1.476-1.176 2.029-1.901 0.549-0.731 0.941-1.507 1.176-2.328z" fill="#8789fe" data-fill-palette-color="primary"></path><path d="M272.032 75.428v0l0.28-0.121c0.054-0.028 0.113-0.024 0.176 0.012 0.067 0.042 0.108 0.062 0.123 0.062v0l3.444 1.719c0.049 0.021 0.09 0.064 0.123 0.13v0c0.228 0.445 0.186 0.747-0.127 0.908v0l-21.893 11.222c-0.072 0.037-0.188 0.093-0.347 0.167-0.153 0.071-0.26 0.122-0.32 0.153v0c-0.639 0.411-0.925 0.831-0.858 1.259v0c0.032 0.447-0.01 0.699-0.124 0.758v0c-0.283 0.145-0.458 0.151-0.525 0.019v0l-2.306-4.5c-0.068-0.132-0.009-0.246 0.177-0.341 0.18-0.092 0.319-0.11 0.417-0.054 0.088 0.053 0.19 0.134 0.306 0.241 0.122 0.105 0.242 0.176 0.36 0.214 0.112 0.041 0.232 0.067 0.359 0.078 0.133 0.008 0.24 0.01 0.322 0.006 0.082-0.004 0.19-0.029 0.325-0.076 0.132-0.053 0.22-0.09 0.262-0.111v0l19.215-9.85c0.337-0.173 0.534-0.372 0.592-0.599 0.058-0.227 0.042-0.435-0.047-0.625-0.08-0.186-0.109-0.324-0.086-0.412v0c0.011-0.127 0.061-0.214 0.152-0.259z" fill="#8789fe" data-fill-palette-color="primary"></path><path d="M247.851 100.617l-1.136-3.285c-0.049-0.14 0.047-0.253 0.289-0.339 0.242-0.085 0.404-0.114 0.486-0.085 0.079 0.022 0.177 0.106 0.293 0.252v0c1.679 2.044 4.838 3.499 9.476 4.365v0l0.114-0.04 10.394-11.18c0.285-0.308 0.54-0.502 0.762-0.58 0.229-0.081 0.369-0.051 0.419 0.089v0l1.484 4.215c0.049 0.14-0.018 0.243-0.203 0.308-0.185 0.065-0.319 0.059-0.404-0.019-0.089-0.069-0.174-0.15-0.258-0.242v0c-0.199-0.259-0.419-0.347-0.661-0.262-0.242 0.085-0.378 0.158-0.407 0.219v0l-7.256 7.733 0.165 0.468 10.437 1.299c0.058 0.023 0.183 0 0.374-0.068v0c0.261-0.092 0.399-0.302 0.412-0.628 0.011-0.333 0.075-0.52 0.189-0.561v0c0.306-0.108 0.483-0.091 0.533 0.049v0l1.158 3.287c0.049 0.14-0.018 0.243-0.203 0.308v0c-0.236 0.083-0.469 0.112-0.701 0.086v0l-9.007-1.114c-1.462-0.187-2.612-0.351-3.451-0.494v0l-3.105-0.582c-1.222-0.236-2.295-0.477-3.22-0.724v0l-3.044-0.894c-1.108-0.34-2.197-0.709-3.268-1.105v0c-0.381-0.145-0.601-0.304-0.661-0.476z" fill="#8789fe" data-fill-palette-color="primary"></path><path d="M12.868 143.273c0-1.787 1.448-3.235 3.235-3.234 1.787 0 3.235 1.448 3.235 3.234 0 1.787-1.448 3.235-3.235 3.235-1.787 0-3.235-1.448-3.235-3.235z" fill="#8789fe" data-fill-palette-color="primary"></path><path d="M268.212 143.273c0-1.787 1.448-3.235 3.235-3.234 1.787 0 3.235 1.448 3.235 3.234 0 1.787-1.448 3.235-3.235 3.235-1.787 0-3.235-1.448-3.235-3.235z" fill="#8789fe" data-fill-palette-color="primary"></path></g><g id="text-1"><path d="M14.603 185.575l-0.047-1.01c-0.032-0.352-0.048-0.746-0.05-1.179-0.008-0.431-0.03-0.702-0.067-0.811v0l-0.064-0.192c-0.128-0.385-0.444-0.607-0.947-0.667v0c-0.023-0.006-0.036-0.013-0.039-0.02v0l-0.159-0.481c-0.021-0.064-0.007-0.108 0.041-0.131v0l4.352-3.004c0.205-0.132 0.372-0.006 0.499 0.379v0c0.049 0.147 0.054 0.26 0.016 0.336-0.041 0.07-0.07 0.123-0.087 0.157-0.013 0.026-0.074 0.099-0.183 0.221v0c-1.292 2.024-1.479 4.42-0.559 7.189v0c0.483 1.455 1.269 2.536 2.359 3.242 1.082 0.708 2.367 0.815 3.854 0.322v0c1-0.332 1.697-0.742 2.09-1.229 0.387-0.484 0.672-0.871 0.854-1.159v0c0.387-0.613 0.776-1.895 1.167-3.847 0.382-1.956 0.775-3.571 1.178-4.843v0c1.012-3.233 2.511-5.18 4.498-5.84 1.994-0.662 3.74-0.548 5.239 0.342 1.503 0.882 2.595 2.348 3.276 4.4v0c0.383 1.154 0.477 2.475 0.281 3.964v0c-0.093 0.707-0.14 1.217-0.142 1.531-0.002 0.314 0.12 0.49 0.367 0.529 0.248 0.039 0.375 0.068 0.382 0.087v0c0.215 0.477 0.22 0.749 0.015 0.817v0l-5.072 2.218c-0.096 0.032-0.227-0.202-0.393-0.702v0c-0.023-0.071 0.051-0.167 0.225-0.288v0c0.998-0.702 1.656-1.796 1.974-3.282 0.326-1.482 0.284-2.842-0.127-4.079v0c-0.875-2.635-2.399-3.591-4.573-2.869v0c-1.577 0.524-2.674 2.472-3.29 5.844v0l-0.635 3.649c-0.427 2.249-1.122 3.96-2.085 5.134-0.971 1.17-2.152 1.985-3.543 2.447v0l-0.164 0.055c-1.961 0.353-3.341 0.452-4.14 0.296v0c-1.32-0.266-2.506-0.869-3.558-1.807-1.052-0.939-1.824-2.149-2.316-3.63v0c-0.238-0.825-0.381-1.521-0.427-2.089z" fill="#8789fe" data-fill-palette-color="primary"></path><path d="M32.286 194.241v0l0.279-0.123c0.03-0.016 0.52 0.185 1.47 0.602 0.948 0.411 1.725 0.789 2.333 1.134v0l0.391 0.745c-0.028 0.091-0.171 0.204-0.429 0.339v0l-9.298 4.872c-0.64 0.335-1.102 0.837-1.385 1.504v0c-0.546 1.316-0.43 2.715 0.347 4.2v0c0.53 1.011 1.462 1.975 2.797 2.892v0l0.703 0.49 9.396-4.924c0.742-0.389 1.079-0.882 1.01-1.479v0c-0.015-0.16-0.021-0.294-0.017-0.403 0.013-0.106 0.109-0.206 0.289-0.3 0.185-0.097 0.313-0.08 0.382 0.052v0l1.792 3.419c0.031 0.06-1.601 0.954-4.898 2.681v0l-5.973 3.119c-0.568 0.298-0.916 0.697-1.043 1.198v0c-0.028 0.121 0.002 0.273 0.091 0.456 0.085 0.192 0.118 0.327 0.098 0.406-0.011 0.082-0.112 0.173-0.303 0.273-0.182 0.103-0.301 0.139-0.356 0.107v0l-3.109-2.157c-0.052-0.026-0.136-0.15-0.252-0.372-0.116-0.221-0.164-0.364-0.144-0.427 0.02-0.064 0.147-0.157 0.38-0.28v0l1.319-0.691c-0.006-0.012-0.105-0.063-0.297-0.153v0c-2.238-1.245-3.695-2.51-4.369-3.796v0c-0.451-0.862-0.685-1.845-0.7-2.951-0.021-1.102 0.197-2.135 0.653-3.099 0.45-0.96 1.082-1.654 1.895-2.08v0l6.103-3.198c0.425-0.223 0.688-0.463 0.789-0.722 0.107-0.262 0.113-0.49 0.018-0.685-0.103-0.197-0.147-0.331-0.13-0.401v0c0.016-0.115 0.072-0.198 0.168-0.248z" fill="#8789fe" data-fill-palette-color="primary"></path><path d="M42.948 213.274v0l0.25-0.173c0.049-0.036 0.11-0.039 0.182-0.009 0.063 0.029 0.104 0.045 0.124 0.048v0l3.679 1.12c0.055 0.018 0.145 0.111 0.27 0.28 0.125 0.168 0.189 0.301 0.194 0.398 0.005 0.097-0.093 0.22-0.294 0.369v0l-2.37 1.755c0.132-0.014 0.287-0.015 0.465-0.003v0c1.316 0.051 2.467 0.266 3.453 0.645 0.985 0.388 1.818 1.041 2.497 1.959v0c0.217 0.293 0.3 0.484 0.248 0.573v0c-0.311 0.466-0.615 0.889-0.914 1.269v0l-1.317 1.643c-0.078 0.1-0.23 0.099-0.456-0.002-0.222-0.096-0.362-0.194-0.42-0.295-0.057-0.1-0.043-0.262 0.044-0.486v0l0.144-0.333c0.086-0.837-0.16-1.55-0.739-2.139-0.584-0.585-1.286-1.027-2.106-1.328-0.825-0.297-1.563-0.414-2.215-0.352v0c-0.024 0.001-0.073 0.004-0.146 0.007-0.078 0.008-0.126 0.017-0.142 0.03v0l-6.335 4.691c-0.049 0.036-0.151 0.108-0.307 0.215-0.156 0.107-0.256 0.177-0.299 0.209v0c-0.525 0.506-0.736 0.97-0.635 1.39 0.1 0.43 0.101 0.686 0.001 0.768v0c-0.255 0.189-0.427 0.224-0.515 0.105v0l-3.027-4.088c-0.088-0.119-0.049-0.241 0.12-0.366 0.163-0.121 0.297-0.161 0.402-0.121 0.096 0.038 0.209 0.101 0.341 0.188 0.133 0.078 0.257 0.125 0.37 0.142v0c0.236 0.035 0.474 0.027 0.713-0.024 0.235-0.057 0.476-0.18 0.722-0.37 0.246-0.19 0.388-0.3 0.426-0.328v0l7.304-5.409c0.3-0.231 0.455-0.463 0.466-0.698 0.02-0.234-0.026-0.439-0.14-0.615-0.11-0.171-0.168-0.296-0.176-0.374v0c0.005-0.13 0.051-0.227 0.138-0.291z" fill="#8789fe" data-fill-palette-color="primary"></path><path d="M48.266 233.851v0c-0.314-0.155-0.421 0.064-0.32 0.657 0.101 0.603 0.445 1.369 1.032 2.3 0.591 0.935 1.112 1.712 1.561 2.331 0.45 0.629 0.878 1.326 1.284 2.093 0.411 0.762 0.719 1.464 0.925 2.105 0.206 0.641 0.252 1.294 0.138 1.957-0.124 0.663-0.445 1.251-0.964 1.764-0.524 0.517-1.114 0.867-1.77 1.049v0c-2.192 0.617-4.763-0.57-7.715-3.56v0c-1.353-1.37-2.236-2.918-2.65-4.645-0.424-1.727-0.149-3.304 0.825-4.731v0l0.152-0.149c0.062-0.062 0.108-0.112 0.137-0.15v0l3.895 0.326c0.062 0.062 0.092 0.199 0.091 0.409 0.003 0.215-0.029 0.356-0.096 0.422-0.062 0.062-0.225 0.089-0.488 0.083-0.263 0.003-0.687 0.294-1.273 0.873-0.586 0.579-0.876 1.349-0.868 2.309 0.008 0.96 0.256 1.865 0.743 2.713v0c1.198 1.703 2.504 2.872 3.918 3.507v0c0.491 0.218 0.989 0.305 1.496 0.26 0.507-0.054 0.921-0.24 1.243-0.558 0.322-0.318 0.423-0.74 0.302-1.266v0c-0.163-0.722-0.925-2.186-2.287-4.393-1.357-2.211-2.289-3.939-2.797-5.183v0c-0.103-0.268-0.133-0.424-0.09-0.467 0.043-0.043 0.424-0.176 1.142-0.401 0.718-0.215 1.462-0.399 2.232-0.552v0c-0.147-0.966-0.079-1.921 0.204-2.864 0.288-0.949 0.783-1.77 1.485-2.463v0c1.37-1.353 2.912-2.026 4.627-2.02 1.705 0.006 3.191 0.651 4.458 1.935 1.267 1.283 1.908 2.74 1.921 4.368v0l0.064 0.036c0.967-0.338 1.479-0.516 1.537-0.534 0.057-0.019 0.103-0.011 0.136 0.022v0l2.015 2.041c0.057 0.058 0.056 0.177-0.002 0.358-0.058 0.172-0.121 0.252-0.188 0.242v0c-0.272-0.102-0.598-0.231-0.979-0.386v0c-0.781-0.32-1.727-0.302-2.838 0.054v0c-0.332 1.068-0.889 1.989-1.673 2.762v0c-1.288 1.272-2.799 1.895-4.533 1.87-1.724-0.025-3.246-0.706-4.565-2.043v0c-0.674-0.683-1.163-1.51-1.467-2.481zM56.691 228.352v0c-1.542-1.562-3.164-1.503-4.866 0.177v0c-0.995 0.982-1.461 2.178-1.399 3.588 0.067 1.405 0.538 2.549 1.411 3.434 0.873 0.884 1.685 1.317 2.435 1.298 0.75-0.019 1.587-0.484 2.51-1.396 0.918-0.906 1.389-2.059 1.412-3.459 0.018-1.395-0.483-2.609-1.503-3.642z" fill="#8789fe" data-fill-palette-color="primary"></path><path d="M65.672 238.126v0l0.196-0.234c0.02-0.027 0.549-0.062 1.586-0.105 1.032-0.047 1.896-0.05 2.594-0.007v0l0.678 0.498c0.015 0.094-0.064 0.259-0.236 0.492v0l-6.211 8.463c-0.428 0.583-0.622 1.236-0.583 1.96v0c0.088 1.422 0.807 2.628 2.157 3.62v0c0.92 0.675 2.182 1.132 3.784 1.369v0l0.847 0.131 6.276-8.553c0.496-0.675 0.581-1.266 0.257-1.772v0c-0.084-0.137-0.148-0.255-0.192-0.355-0.035-0.101 0.008-0.233 0.128-0.396 0.124-0.169 0.246-0.209 0.365-0.122v0l3.113 2.284c0.054 0.04-1.019 1.56-3.222 4.561v0l-3.994 5.427c-0.38 0.517-0.516 1.029-0.41 1.534v0c0.028 0.121 0.122 0.245 0.281 0.37 0.161 0.135 0.25 0.242 0.267 0.321 0.026 0.078-0.024 0.204-0.152 0.379-0.118 0.173-0.209 0.257-0.273 0.252v0l-3.741-0.571c-0.058-0.001-0.188-0.075-0.389-0.223-0.202-0.148-0.307-0.255-0.318-0.321-0.01-0.066 0.063-0.205 0.219-0.418v0l0.881-1.2c-0.011-0.008-0.122-0.01-0.334-0.007v0c-2.558-0.134-4.422-0.631-5.593-1.49v0c-0.784-0.575-1.426-1.356-1.926-2.343-0.503-0.981-0.762-2.004-0.775-3.07-0.018-1.06 0.245-1.961 0.788-2.702v0l4.077-5.555c0.284-0.387 0.414-0.718 0.391-0.995-0.019-0.282-0.114-0.49-0.285-0.623-0.18-0.132-0.277-0.233-0.293-0.303v0c-0.036-0.11-0.022-0.209 0.042-0.296z" fill="#8789fe" data-fill-palette-color="primary"></path><path d="M88.447 246.422v0c0.135-0.181 0.369-0.182 0.703-0.003 0.339 0.182 0.457 0.371 0.351 0.567v0l-1.444 2.698 2.68 1.435c0.518 0.277 0.742 0.482 0.672 0.612v0l-0.713 1.331c-0.073 0.137-0.369 0.067-0.887-0.21v0l-2.68-1.435-5.031 9.397c-0.644 1.203-0.65 2.066-0.018 2.588v0c0.475 0.4 1.138 0.494 1.987 0.283v0c0.347-0.09 0.541-0.051 0.581 0.115 0.035 0.164 0.054 0.286 0.058 0.365 0.01 0.082 0 0.15-0.028 0.203-0.032 0.06-0.056 0.104-0.072 0.134v0c-0.014 0.054-0.113 0.112-0.299 0.173v0l-0.465 0.096c-1.536 0.35-2.779 0.217-3.729-0.399-0.953-0.61-1.342-1.565-1.167-2.866v0c0.092-0.702 0.363-1.472 0.813-2.312v0l4.878-9.111-0.697-0.373c-0.518-0.277-0.741-0.485-0.667-0.622v0l0.713-1.331c0.07-0.131 0.317-0.083 0.739 0.143v0c0.75 0.402 1.43 0.428 2.038 0.08 0.608-0.349 1.17-0.868 1.684-1.558z" fill="#8789fe" data-fill-palette-color="primary"></path><path d="M99.538 269.505v0c0 0 5.737-7.245 17.21-21.734v0c0.086-0.118 0.374-0.114 0.865 0.012 0.484 0.123 0.743 0.259 0.774 0.406v0l5.039 27.405c0.175 1.118 0.447 1.829 0.816 2.132v0c0.126 0.109 0.162 0.268 0.109 0.478-0.053 0.209-0.152 0.296-0.296 0.259v0l-6.019-1.534c-0.144-0.037-0.191-0.153-0.141-0.35 0.048-0.19 0.1-0.299 0.156-0.326 0.062-0.026 0.141-0.048 0.237-0.065 0.102-0.016 0.189-0.046 0.263-0.09v0c0.526-0.312 0.834-0.648 0.926-1.008 0.092-0.36 0.128-0.668 0.11-0.924v0l-0.961-6.32-11.998-3.059-3.821 5.102c-0.139 0.216-0.223 0.382-0.253 0.5v0l-0.047 0.186c-0.003 0.013-0.007 0.026-0.01 0.04v0c-0.115 0.452-0.013 0.941 0.305 1.468v0c0.028 0.056 0.105 0.135 0.232 0.237 0.132 0.11 0.172 0.27 0.119 0.48-0.053 0.209-0.155 0.295-0.306 0.257v0l-5.244-1.337c-0.144-0.037-0.191-0.153-0.14-0.35 0.048-0.19 0.104-0.298 0.166-0.323 0.062-0.026 0.142-0.051 0.238-0.075v0c0.407-0.064 0.963-0.553 1.671-1.467zM115.831 253.174l-7.349 9.263c-0.028 0.028-0.042 0.069-0.043 0.125-0.005 0.047 0.009 0.075 0.042 0.084v0l9.504 2.422c0.033 0.008 0.061-0.009 0.086-0.051 0.026-0.049 0.031-0.093 0.013-0.133v0l-2.136-11.68z" fill="#8789fe" data-fill-palette-color="primary"></path><path d="M130.519 265.6v0l0.035-0.302c0.002-0.034 0.423-0.355 1.265-0.963 0.835-0.608 1.555-1.087 2.16-1.437v0l0.84 0.042c0.064 0.071 0.089 0.251 0.075 0.541v0l-0.513 10.485c-0.035 0.722 0.163 1.374 0.594 1.956v0c0.857 1.138 2.123 1.747 3.796 1.829v0c1.14 0.056 2.444-0.259 3.912-0.945v0l0.778-0.357 0.518-10.596c0.041-0.837-0.213-1.377-0.763-1.62v0c-0.145-0.068-0.264-0.131-0.356-0.19-0.085-0.065-0.122-0.199-0.112-0.401 0.01-0.209 0.09-0.31 0.238-0.303v0l3.856 0.188c0.067 0.003 0.01 1.864-0.171 5.582v0l-0.34 6.729c-0.031 0.641 0.137 1.143 0.505 1.506v0c0.09 0.086 0.237 0.137 0.439 0.153 0.208 0.024 0.342 0.064 0.4 0.121 0.065 0.051 0.092 0.184 0.082 0.4-0.003 0.209-0.033 0.33-0.089 0.361v0l-3.436 1.587c-0.049 0.031-0.198 0.041-0.447 0.029-0.25-0.012-0.397-0.043-0.442-0.093-0.045-0.05-0.061-0.206-0.048-0.469v0l0.072-1.487c-0.013-0.001-0.108 0.059-0.282 0.178v0c-2.207 1.299-4.036 1.913-5.487 1.842v0c-0.972-0.048-1.938-0.345-2.899-0.892-0.961-0.541-1.741-1.252-2.34-2.133-0.6-0.875-0.877-1.771-0.832-2.689v0l0.336-6.882c0.023-0.479-0.051-0.828-0.223-1.045-0.172-0.225-0.365-0.346-0.58-0.364-0.223-0.011-0.36-0.041-0.412-0.091v0c-0.091-0.072-0.134-0.162-0.129-0.27z" fill="#8789fe" data-fill-palette-color="primary"></path><path d="M154.092 259.959v0c0.013-0.225 0.208-0.355 0.584-0.391 0.383-0.036 0.585 0.057 0.606 0.28v0l0.284 3.047 3.026-0.282c0.585-0.054 0.885-0.008 0.899 0.14v0l0.14 1.504c0.014 0.155-0.271 0.259-0.856 0.313v0l-3.027 0.282 0.988 10.613c0.126 1.359 0.597 2.081 1.412 2.169v0c0.617 0.071 1.221-0.215 1.813-0.861v0c0.24-0.267 0.423-0.341 0.549-0.224 0.119 0.118 0.203 0.208 0.249 0.272 0.053 0.063 0.083 0.125 0.089 0.185 0.006 0.067 0.011 0.118 0.014 0.151v0c0.018 0.053-0.033 0.156-0.155 0.31v0l-0.335 0.336c-1.088 1.139-2.198 1.714-3.33 1.725-1.131 0.017-1.983-0.565-2.554-1.747v0c-0.31-0.636-0.509-1.428-0.597-2.376v0l-0.958-10.291-0.787 0.073c-0.585 0.054-0.885 0.004-0.899-0.15v0l-0.14-1.504c-0.014-0.148 0.218-0.244 0.696-0.288v0c0.847-0.079 1.429-0.431 1.743-1.058 0.315-0.626 0.497-1.369 0.546-2.228z" fill="#8789fe" data-fill-palette-color="primary"></path><path d="M166.964 263.745c-0.625 0.621-1.03 1.342-1.217 2.165-0.187 0.822-0.155 1.804 0.095 2.946 0.25 1.142 0.816 2.214 1.699 3.216 0.882 0.996 1.947 1.707 3.195 2.133 1.248 0.425 2.416 0.519 3.505 0.281 1.095-0.24 1.933-0.679 2.512-1.318 0.578-0.645 0.963-1.4 1.154-2.264 0.193-0.858 0.186-1.759-0.021-2.703v0c-0.433-1.98-1.432-3.542-2.996-4.686-1.571-1.143-3.415-1.483-5.534-1.019v0c-0.97 0.212-1.767 0.629-2.392 1.249zM167.365 275.534c-0.895-0.551-1.681-1.281-2.357-2.192-0.676-0.91-1.165-2.051-1.465-3.423-0.302-1.379-0.241-2.793 0.182-4.241 0.422-1.454 1.213-2.689 2.374-3.704 1.161-1.015 2.451-1.677 3.87-1.987v0c2.6-0.569 4.843-0.209 6.729 1.079 1.888 1.295 3.09 3.106 3.606 5.434 0.515 2.321 0.135 4.458-1.139 6.41-1.274 1.952-3.145 3.198-5.613 3.739v0c-1.056 0.231-2.126 0.24-3.209 0.028-1.082-0.206-2.075-0.587-2.978-1.143z" fill="#8789fe" data-fill-palette-color="primary"></path><path d="M203.354 265.955l-0.993 0.191c-0.344 0.082-0.731 0.155-1.159 0.218-0.426 0.07-0.69 0.13-0.793 0.182v0l-0.181 0.091c-0.362 0.182-0.537 0.526-0.525 1.033v0c-0.003 0.024-0.008 0.038-0.014 0.041v0l-0.453 0.227c-0.06 0.03-0.106 0.023-0.136-0.023v0l-3.596-3.876c-0.16-0.184-0.059-0.367 0.303-0.548v0c0.139-0.07 0.249-0.091 0.331-0.064 0.076 0.03 0.131 0.051 0.167 0.063 0.027 0.009 0.109 0.059 0.245 0.15v0c2.188 0.989 4.586 0.83 7.196-0.477v0c1.371-0.687 2.328-1.62 2.87-2.798 0.546-1.173 0.468-2.459-0.234-3.861v0c-0.472-0.942-0.977-1.573-1.515-1.893-0.535-0.314-0.958-0.54-1.269-0.678v0c-0.662-0.296-1.987-0.497-3.974-0.605-1.991-0.098-3.645-0.255-4.963-0.471v0c-3.345-0.538-5.486-1.743-6.424-3.616-0.941-1.878-1.078-3.623-0.412-5.233 0.657-1.614 1.952-2.905 3.885-3.873v0c1.087-0.545 2.381-0.827 3.883-0.846v0c0.713-0.01 1.225-0.036 1.536-0.078 0.311-0.043 0.468-0.189 0.471-0.44 0.003-0.251 0.013-0.381 0.031-0.39v0c0.441-0.281 0.71-0.325 0.807-0.132v0l2.922 4.701c0.045 0.091-0.167 0.254-0.639 0.49v0c-0.066 0.033-0.172-0.027-0.317-0.181v0c-0.837-0.887-2.015-1.382-3.531-1.483-1.514-0.111-2.853 0.126-4.019 0.71v0c-2.482 1.244-3.21 2.889-2.185 4.936v0c0.744 1.486 2.829 2.292 6.256 2.419v0l3.702 0.106c2.287 0.101 4.08 0.544 5.38 1.328 1.297 0.793 2.273 1.846 2.929 3.156v0l0.078 0.154c0.63 1.891 0.925 3.242 0.886 4.055v0c-0.074 1.344-0.501 2.604-1.279 3.78-0.778 1.176-1.865 2.113-3.26 2.812v0c-0.782 0.354-1.451 0.595-2.007 0.723z" fill="#8789fe" data-fill-palette-color="primary"></path><path d="M209.4 247.213v0l-0.162-0.258c-0.02-0.027 0.109-0.541 0.386-1.542 0.271-0.997 0.534-1.82 0.789-2.471v0l0.681-0.493c0.094 0.015 0.227 0.14 0.397 0.376v0l6.152 8.505c0.424 0.586 0.986 0.971 1.686 1.157v0c1.38 0.352 2.749 0.038 4.107-0.945v0c0.925-0.669 1.746-1.73 2.463-3.181v0l0.384-0.766-6.217-8.596c-0.491-0.679-1.027-0.941-1.608-0.788v0c-0.156 0.038-0.288 0.063-0.396 0.074-0.107 0.002-0.22-0.079-0.339-0.243-0.123-0.17-0.124-0.298-0.003-0.385v0l3.128-2.263c0.055-0.04 1.173 1.449 3.354 4.465v0l3.94 5.466c0.376 0.52 0.821 0.807 1.335 0.86v0c0.124 0.01 0.27-0.041 0.439-0.155 0.178-0.112 0.307-0.164 0.387-0.155 0.082-0.001 0.187 0.086 0.314 0.261 0.128 0.166 0.18 0.278 0.156 0.337v0l-1.69 3.386c-0.019 0.055-0.129 0.156-0.331 0.302-0.203 0.146-0.337 0.214-0.403 0.204-0.066-0.011-0.176-0.123-0.331-0.336v0l-0.873-1.207c-0.011 0.008-0.047 0.113-0.109 0.316v0c-0.912 2.393-1.956 4.016-3.132 4.867v0c-0.788 0.57-1.728 0.942-2.821 1.114-1.088 0.178-2.142 0.111-3.16-0.202-1.015-0.308-1.791-0.834-2.33-1.579v0l-4.038-5.583c-0.281-0.389-0.557-0.614-0.827-0.677-0.274-0.068-0.501-0.042-0.68 0.079-0.181 0.131-0.307 0.193-0.379 0.186v0c-0.116 0.001-0.206-0.043-0.269-0.13z" fill="#8789fe" data-fill-palette-color="primary"></path><path d="M226.674 233.924v0l-0.205-0.226c-0.044-0.042-0.059-0.099-0.047-0.171 0.022-0.072 0.031-0.115 0.026-0.129v0l0.499-3.822c0.004-0.053 0.078-0.154 0.224-0.306 0.14-0.146 0.261-0.232 0.36-0.258 0.1-0.026 0.24 0.048 0.42 0.222v0l1.015 0.976c-0.06-0.386 0.01-0.98 0.209-1.781v0c0.366-1.55 0.959-2.751 1.779-3.604v0c1.658-1.724 3.626-2.576 5.905-2.559 2.289 0.017 4.295 0.855 6.018 2.513 1.719 1.653 2.594 3.642 2.625 5.968 0.031 2.326-0.836 4.407-2.602 6.243v0c-1.189 1.237-2.672 2.018-4.447 2.344v0l3.863 3.715c0.039 0.037 0.124 0.124 0.256 0.26 0.132 0.136 0.219 0.215 0.263 0.239v0c0.592 0.457 1.089 0.597 1.491 0.422 0.398-0.18 0.643-0.225 0.736-0.136v0c0.229 0.22 0.292 0.384 0.188 0.491v0l-3.525 3.666c-0.103 0.107-0.228 0.09-0.374-0.05-0.151-0.145-0.213-0.271-0.187-0.376 0.017-0.105 0.058-0.23 0.122-0.375 0.059-0.149 0.088-0.281 0.086-0.396v0c-0.005-0.502-0.168-0.902-0.49-1.202-0.326-0.304-0.504-0.47-0.532-0.498v0l-11.671-11.224c-0.282-0.252-0.537-0.367-0.766-0.343-0.234 0.019-0.428 0.099-0.583 0.24-0.15 0.137-0.263 0.215-0.339 0.236v0c-0.133 0.022-0.239-0.005-0.317-0.079zM237.004 225.288c-0.856-0.065-1.716 0.084-2.579 0.444-0.867 0.366-1.717 0.982-2.551 1.848-0.838 0.872-1.248 2.286-1.228 4.245v0l4.893 4.706c1.258 0.31 2.509 0.295 3.754-0.044 1.24-0.344 2.24-0.911 2.998-1.7 0.763-0.794 1.208-1.617 1.335-2.47 0.127-0.862 0.029-1.706-0.293-2.531-0.317-0.82-0.826-1.568-1.527-2.242-0.696-0.67-1.457-1.199-2.281-1.589-0.829-0.385-1.67-0.608-2.521-0.667z" fill="#8789fe" data-fill-palette-color="primary"></path><path d="M240.693 218.586v0l-0.241-0.187c-0.05-0.034-0.075-0.088-0.074-0.161 0.01-0.075 0.011-0.119 0.004-0.132v0l-0.156-3.852c-0.005-0.052 0.051-0.165 0.168-0.338 0.114-0.168 0.218-0.273 0.312-0.316 0.094-0.042 0.244 0.007 0.451 0.147v0l1.166 0.791c-0.125-0.37-0.156-0.967-0.096-1.791v0c0.098-1.59 0.479-2.874 1.143-3.853v0c1.342-1.979 3.137-3.153 5.386-3.522 2.259-0.37 4.378 0.115 6.357 1.457 1.974 1.338 3.173 3.151 3.598 5.438 0.424 2.287-0.078 4.485-1.507 6.593v0c-0.963 1.42-2.291 2.441-3.986 3.063v0l4.437 3.008c0.045 0.03 0.143 0.101 0.296 0.213 0.153 0.112 0.253 0.175 0.299 0.19v0c0.661 0.35 1.174 0.404 1.542 0.164 0.362-0.245 0.596-0.331 0.701-0.259v0c0.263 0.178 0.352 0.329 0.27 0.452v0l-2.855 4.21c-0.083 0.123-0.209 0.128-0.376 0.014-0.173-0.117-0.256-0.231-0.248-0.339-0.001-0.107 0.018-0.237 0.057-0.39 0.033-0.157 0.039-0.292 0.017-0.405v0c-0.09-0.493-0.318-0.861-0.686-1.101-0.373-0.245-0.576-0.378-0.609-0.401v0l-13.403-9.085c-0.321-0.201-0.592-0.271-0.813-0.209-0.227 0.058-0.405 0.17-0.534 0.336-0.125 0.16-0.223 0.257-0.295 0.29v0c-0.128 0.044-0.236 0.036-0.325-0.025zM249.411 208.325c-0.855 0.081-1.677 0.373-2.466 0.875-0.793 0.507-1.526 1.258-2.201 2.254-0.678 1.001-0.842 2.465-0.492 4.391v0l5.619 3.809c1.292 0.092 2.523-0.134 3.693-0.679 1.164-0.549 2.053-1.277 2.667-2.183 0.618-0.911 0.917-1.798 0.897-2.66-0.021-0.871-0.261-1.686-0.717-2.445-0.451-0.755-1.08-1.405-1.885-1.951-0.8-0.542-1.639-0.935-2.517-1.18-0.882-0.239-1.748-0.316-2.598-0.231z" fill="#8789fe" data-fill-palette-color="primary"></path><path d="M241.624 195.533v0l-0.261-0.157c-0.054-0.028-0.085-0.078-0.094-0.15-0.005-0.079-0.012-0.124-0.021-0.137v0l-0.614-3.799c-0.012-0.051 0-0.11 0.033-0.176v0c0.228-0.445 0.498-0.587 0.811-0.427v0l21.893 11.222c0.072 0.037 0.185 0.099 0.338 0.185 0.147 0.083 0.251 0.14 0.311 0.171v0c0.707 0.279 1.215 0.266 1.523-0.039v0c0.344-0.287 0.573-0.401 0.688-0.343v0c0.283 0.145 0.39 0.283 0.322 0.416v0l-2.306 4.5c-0.068 0.132-0.195 0.151-0.382 0.055-0.18-0.092-0.276-0.195-0.287-0.307-0.008-0.103-0.002-0.233 0.018-0.389 0.014-0.16 0.001-0.299-0.037-0.418-0.032-0.115-0.081-0.227-0.146-0.336-0.071-0.112-0.132-0.201-0.183-0.265-0.051-0.064-0.135-0.137-0.252-0.22-0.12-0.077-0.201-0.126-0.243-0.148v0l-19.215-9.849c-0.337-0.173-0.614-0.216-0.832-0.131-0.218 0.085-0.378 0.22-0.48 0.403-0.104 0.174-0.199 0.277-0.284 0.31v0c-0.109 0.065-0.209 0.075-0.3 0.029z" fill="#8789fe" data-fill-palette-color="primary"></path><path d="M276.711 196.094l-1.173 3.271c-0.049 0.14-0.195 0.168-0.438 0.082-0.242-0.085-0.386-0.165-0.431-0.238-0.048-0.067-0.072-0.193-0.071-0.379v0c-0.028-2.645-1.578-5.759-4.65-9.34v0l-0.114-0.04-15.106 2.2c-0.415 0.061-0.735 0.053-0.957-0.025-0.229-0.081-0.319-0.191-0.27-0.332v0l1.484-4.215c0.049-0.14 0.166-0.178 0.351-0.112 0.185 0.065 0.286 0.154 0.303 0.268 0.026 0.109 0.042 0.226 0.049 0.35v0c-0.008 0.327 0.11 0.533 0.351 0.618 0.242 0.085 0.393 0.113 0.454 0.084v0l10.501-1.48 0.165-0.468-7.321-7.552c-0.031-0.054-0.142-0.115-0.333-0.181v0c-0.261-0.092-0.5-0.015-0.715 0.231-0.218 0.253-0.384 0.359-0.499 0.319v0c-0.306-0.108-0.434-0.232-0.385-0.372v0l1.158-3.288c0.049-0.14 0.166-0.178 0.351-0.113v0c0.236 0.083 0.436 0.207 0.599 0.373v0l6.322 6.512c1.023 1.062 1.816 1.911 2.38 2.546v0l2.056 2.4c0.804 0.949 1.49 1.81 2.055 2.582v0l1.812 2.604c0.65 0.96 1.269 1.929 1.855 2.909v0c0.206 0.352 0.278 0.614 0.217 0.786z" fill="#8789fe" data-fill-palette-color="primary"></path></g></svg></g></svg></g></svg></g><g></g></svg></g><defs></defs></svg><rect width="280" height="280" fill="none" stroke="none" visibility="hidden"></rect></g></svg></g></svg>