<svg xmlns="http://www.w3.org/2000/svg" version="1.1" xmlns:xlink="http://www.w3.org/1999/xlink" xmlns:svgjs="http://svgjs.dev/svgjs" width="128" height="128" viewBox="0 0 128 128"><g transform="matrix(0.8046875,0,0,0.8046875,12.221578124999994,22.6307337470004)"><svg viewBox="0 0 96 77" data-background-color="#ffffff" preserveAspectRatio="xMidYMid meet" height="102" width="128" xmlns="http://www.w3.org/2000/svg" xmlns:xlink="http://www.w3.org/1999/xlink"><g id="tight-bounds" transform="matrix(1,0,0,1,0.25950000000000273,0.3602147841248211)"><svg viewBox="0 0 95.481 76.27957043175036" height="76.27957043175036" width="95.481"><g><svg viewBox="0 0 95.481 76.27957043175036" height="76.27957043175036" width="95.481"><g><svg viewBox="0 0 95.481 76.27957043175036" height="76.27957043175036" width="95.481"><g id="textblocktransform"><svg viewBox="0 0 95.481 76.27957043175036" height="76.27957043175036" width="95.481" id="textblock"><g><svg viewBox="0 0 95.481 76.27957043175036" height="76.27957043175036" width="95.481"><g><svg viewBox="0 0 95.481 76.27957043175036" height="76.27957043175036" width="95.481"><g><svg version="1.1" xmlns="http://www.w3.org/2000/svg" xmlns:xlink="http://www.w3.org/1999/xlink" x="0" y="0" viewBox="11.855144043705314 19.526 76.29135083038855 60.949" enable-background="new 0 0 100 100" xml:space="preserve" height="76.27957043175036" width="95.481" class="icon-icon-0" data-fill-palette-color="accent" id="icon-0"><path d="M88.141 67.592L87.51 53.891C87.41 51.733 85.975 50.041 84.24 50.041 84.031 50.041 83.847 50.028 83.696 50.01V45.476C83.696 45.282 83.676 45.095 83.649 44.909 85.24 44.118 86.414 42.449 86.414 40.862 86.414 38.909 84.658 37.32 82.5 37.32H79.24C78.838 37.32 78.453 37.384 78.089 37.498L76.229 26.878A4.2 4.2 0 0 0 75.612 25.324 4 4 0 0 0 75.726 24.396V23.439A3.917 3.917 0 0 0 71.813 19.526H28.188A3.917 3.917 0 0 0 24.275 23.439V24.396C24.275 24.716 24.316 25.026 24.389 25.324 24.087 25.794 23.87 26.318 23.771 26.878L21.911 37.498A3.8 3.8 0 0 0 20.761 37.32H17.5C15.342 37.32 13.587 38.909 13.587 40.862 13.587 42.448 14.761 44.117 16.351 44.909A4 4 0 0 0 16.305 45.476V50.01A5 5 0 0 1 15.762 50.041C14.027 50.041 12.591 51.733 12.491 53.891L11.861 67.592C11.803 68.863 12.178 70.019 12.89 70.764 13.381 71.28 14.015 71.563 14.674 71.563H16.956V76.562A3.917 3.917 0 0 0 20.869 80.475H24.782A3.917 3.917 0 0 0 28.695 76.562V71.563H71.304V76.562A3.917 3.917 0 0 0 75.216 80.475H79.13A3.917 3.917 0 0 0 83.042 76.562V71.563H85.325C85.985 71.563 86.618 71.28 87.109 70.764 87.823 70.019 88.197 68.862 88.141 67.592M26.087 76.562C26.087 77.282 25.502 77.867 24.783 77.867H20.87A1.306 1.306 0 0 1 19.566 76.562V71.563H26.087zM24.766 60.123C22.014 60.123 19.783 58.047 19.783 55.486S22.014 50.851 24.766 50.851 29.749 52.926 29.749 55.486C29.749 58.047 27.518 60.123 24.766 60.123M63.207 59.892H37.29A0.652 0.652 0 1 1 37.29 58.589H63.207A0.651 0.651 0 1 1 63.207 59.892M63.207 56.561H37.29A0.653 0.653 0 0 1 37.29 55.257H63.207A0.652 0.652 0 0 1 63.207 56.561M63.207 53.229H37.29A0.652 0.652 0 0 1 37.29 51.925H63.207A0.653 0.653 0 0 1 63.207 53.229M68.178 43.072C66.951 43.072 65.533 42.919 64.649 42.69L52.852 39.646A10.7 10.7 0 0 0 50.87 39.363V37.867C51.548 37.668 53.218 35.45 52.664 34.895 52.109 34.341 50.896 35.19 50 35.87 49.076 35.163 47.96 34.273 47.337 34.896S48.46 37.671 49.13 37.868V39.364C48.393 39.407 47.708 39.503 47.148 39.647L35.352 42.69C34.467 42.919 33.048 43.072 31.822 43.072 31.402 43.072 31.015 43.053 30.704 43.019L23.746 42.24C23.746 42.177 23.751 42.111 23.763 42.043L26.341 27.327C26.48 26.533 27.309 25.837 28.115 25.837H71.884C72.69 25.837 73.519 26.533 73.657 27.327L76.235 42.043C76.247 42.11 76.252 42.176 76.253 42.24L69.294 43.019C68.984 43.054 68.598 43.072 68.178 43.072M70.251 55.486C70.251 52.926 72.482 50.851 75.234 50.851S80.216 52.926 80.216 55.486C80.216 58.047 77.986 60.123 75.234 60.123S70.251 58.047 70.251 55.486M80.435 76.562C80.435 77.282 79.85 77.867 79.131 77.867H75.217A1.306 1.306 0 0 1 73.913 76.562V71.563H80.434V76.562z" fill="#8789fe" data-fill-palette-color="accent"></path></svg></g></svg></g></svg></g></svg></g></svg></g><g></g></svg></g><defs></defs></svg><rect width="95.481" height="76.27957043175036" fill="none" stroke="none" visibility="hidden"></rect></g></svg></g></svg>